# xmcd
#
# Track frame offsets:
#	183
#	19915
#	51510
#	71480
#	91450
#	136440
#	159350
#	173953
#	194938
#	213690
#	237763
#
# Disc length: 3490 seconds
#
# Revision: 1
# Processed by: cddbd v1.5.1PL0 Copyright (c) Steve Scherf et al.
# Submitted via: audiograbber 1.81.03
#
DISCID=a70da00b
DTITLE=Vincent Flatts Final Drive - Just A Few More Years And I'll Be Outa This
DTITLE=Place
DYEAR=1995
DGENRE=Country
TTITLE0=Six Days On The Road
TTITLE1=Boogie Man
TTITLE2=Good Time
TTITLE3=The River's Risin'
TTITLE4=No Stranger To The Blues
TTITLE5=Stand Back
TTITLE6=Chicago To Memphis
TTITLE7=Hard For Me
TTITLE8=The Last Time
TTITLE9=Shape I'm In
TTITLE10=Boogie Whip
EXTD=
EXTT0=
EXTT1=
EXTT2=
EXTT3=
EXTT4=
EXTT5=
EXTT6=
EXTT7=
EXTT8=
EXTT9=
EXTT10=
PLAYORDER=
